<svg version="1.1" xmlns="http://www.w3.org/2000/svg" xmlns:xlink="http://www.w3.org/1999/xlink" width="62.01778" height="110.19952" viewBox="0,0,62.01778,110.19952"><g transform="translate(-210.00272,-100.16022)"><g data-paper-data="{&quot;isPaintingLayer&quot;:true}" fill="#000000" fill-rule="nonzero" stroke="#000000" stroke-width="2" stroke-linecap="butt" stroke-linejoin="miter" stroke-miterlimit="10" stroke-dasharray="" stroke-dashoffset="0" style="mix-blend-mode: normal"><path d="M268.99728,180c0,16.21493 -12.98253,29.35974 -28.99727,29.35974c-16.01475,0 -28.99727,-13.1448 -28.99727,-29.35974c0,-6.04692 11.0555,-29.16686 14.15044,-33.83734c5.20421,-7.85351 4.80435,4.47761 14.84683,4.47761c11.53802,0 17.50211,-18.17699 22.1712,-8.29856c0.50131,1.06063 1.24789,4.0709 2.06561,7.96661c0.7339,3.49644 -16.22488,17.45614 -15.50227,21.6097c1.38177,7.9423 20.26274,5.92936 20.26274,8.08199z"/><path d="M262.19352,146.53804c0,11.52894 -9.68184,20.875 -21.625,20.875c-11.94316,0 -16.125,-3.84606 -16.125,-15.375c0,-11.52894 4.18184,-26.375 16.125,-26.375c11.94316,0 21.625,9.34606 21.625,20.875z"/><path d="M270.51023,115.41023c0,-5.52285 2.30267,-14.25 -2.875,-14.25c-5.17767,0 -10.875,6.97715 -10.875,12.5c0,5.52285 -3.55267,11.75 1.625,11.75c5.17767,0 12.125,-4.47715 12.125,-10z"/></g></g></svg>